<?xml version="1.0" encoding="utf-8"?>
<!-- Generator: Adobe Illustrator 29.7.1, SVG Export Plug-In . SVG Version: 9.03 Build 0)  -->
<svg version="1.1" id="Layer_1" xmlns="http://www.w3.org/2000/svg" xmlns:xlink="http://www.w3.org/1999/xlink" x="0px" y="0px"
	 viewBox="0 0 152.14 63.9" style="enable-background:new 0 0 152.14 63.9;" xml:space="preserve">
<style type="text/css">
	.st0{fill:none;}
	.st1{fill:#333333;}
	.st2{fill:#508DF8;}
	.st3{fill:#1A2653;}
</style>
<g>
	<g>
		<rect x="13.57" y="48.03" class="st0" width="125" height="6.4"/>
		<path class="st1" d="M14.13,48.29h0.71v1.86h2.24v-1.86h0.71v4.23h-0.71v-1.77h-2.24v1.77h-0.71V48.29z"/>
		<path class="st1" d="M21.23,48.29c0.27,0,0.51,0.03,0.72,0.1c0.21,0.06,0.39,0.16,0.54,0.28s0.26,0.27,0.33,0.45
			c0.08,0.18,0.12,0.38,0.12,0.61c0,0.24-0.04,0.45-0.12,0.64s-0.19,0.35-0.33,0.47s-0.32,0.23-0.54,0.29
			c-0.21,0.07-0.45,0.1-0.72,0.1h-1v1.29h-0.71v-4.23H21.23z M21.23,50.62c0.16,0,0.31-0.02,0.44-0.05
			c0.13-0.04,0.24-0.09,0.32-0.16c0.09-0.07,0.15-0.16,0.2-0.27s0.07-0.24,0.07-0.39c0-0.14-0.02-0.27-0.07-0.38
			c-0.05-0.11-0.11-0.2-0.2-0.26c-0.09-0.07-0.2-0.12-0.32-0.16c-0.13-0.03-0.27-0.05-0.44-0.05h-1v1.72H21.23z M21.26,50.95h0.7
			l1.05,1.57H22.2L21.26,50.95z"/>
		<path class="st1" d="M27.91,50.43c-0.18,0.07-0.33,0.15-0.44,0.23c-0.12,0.08-0.21,0.15-0.29,0.23c-0.07,0.08-0.12,0.16-0.15,0.25
			s-0.04,0.17-0.04,0.26c0,0.09,0.02,0.18,0.07,0.25c0.04,0.08,0.1,0.14,0.18,0.2s0.17,0.1,0.28,0.13c0.11,0.03,0.23,0.05,0.37,0.05
			c0.23,0,0.43-0.03,0.6-0.1s0.33-0.16,0.46-0.3c0.13-0.13,0.23-0.3,0.32-0.5c0.08-0.2,0.15-0.44,0.2-0.72L30,50.51
			c-0.06,0.34-0.16,0.63-0.29,0.89c-0.13,0.26-0.28,0.47-0.47,0.65c-0.18,0.17-0.4,0.3-0.63,0.39c-0.24,0.09-0.5,0.13-0.78,0.13
			c-0.22,0-0.42-0.03-0.61-0.08c-0.18-0.05-0.34-0.13-0.48-0.23s-0.24-0.22-0.31-0.35s-0.11-0.29-0.11-0.45
			c0-0.15,0.02-0.28,0.07-0.41s0.12-0.25,0.22-0.37c0.1-0.12,0.23-0.23,0.38-0.33c0.15-0.11,0.34-0.21,0.56-0.31L27.91,50.43z
			 M29.8,52.59l-2.4-2.34c-0.1-0.1-0.19-0.2-0.26-0.29s-0.13-0.17-0.18-0.26c-0.05-0.08-0.08-0.16-0.1-0.24
			c-0.02-0.08-0.03-0.16-0.03-0.25c0-0.14,0.03-0.28,0.09-0.4s0.14-0.22,0.24-0.31c0.1-0.08,0.23-0.15,0.37-0.2
			c0.14-0.05,0.3-0.07,0.47-0.07c0.11,0,0.21,0.01,0.31,0.03s0.19,0.05,0.27,0.09c0.08,0.04,0.16,0.09,0.24,0.15
			c0.07,0.06,0.14,0.13,0.21,0.21l-0.39,0.33c-0.04-0.05-0.08-0.09-0.13-0.13s-0.1-0.08-0.15-0.1c-0.05-0.03-0.11-0.05-0.17-0.07
			c-0.06-0.02-0.12-0.02-0.19-0.02c-0.09,0-0.17,0.01-0.24,0.03c-0.07,0.02-0.13,0.06-0.17,0.1c-0.04,0.04-0.08,0.09-0.1,0.15
			c-0.02,0.06-0.03,0.12-0.03,0.19c0,0.05,0.01,0.11,0.02,0.16c0.01,0.05,0.04,0.1,0.08,0.16c0.04,0.06,0.09,0.12,0.15,0.19
			s0.14,0.15,0.24,0.25l2.24,2.18L29.8,52.59z"/>
		<path class="st1" d="M33.57,48.29h0.83l1.46,2.87l1.45-2.87h0.83v4.23h-0.66l-0.01-3.24l-1.39,2.79h-0.45l-1.4-2.79v3.24h-0.66
			V48.29z"/>
		<path class="st1" d="M41.17,48.29h0.73l1.85,4.23H43l-1.48-3.51l-1.47,3.51h-0.74L41.17,48.29z M40.24,50.94h2.53v0.61h-2.53
			V50.94z"/>
		<path class="st1" d="M44.92,48.29h0.7l2.45,3.36l-0.18,0.06v-3.42h0.7v4.23h-0.7l-2.44-3.35l0.19-0.06v3.41h-0.71V48.29z"/>
		<path class="st1" d="M51.64,48.29h0.73l1.85,4.23h-0.76l-1.48-3.51l-1.47,3.51h-0.74L51.64,48.29z M50.7,50.94h2.53v0.61H50.7
			V50.94z"/>
		<path class="st1" d="M58.47,49.33c-0.08-0.08-0.17-0.15-0.27-0.21c-0.1-0.06-0.2-0.11-0.3-0.15c-0.1-0.04-0.21-0.07-0.32-0.1
			c-0.11-0.02-0.22-0.03-0.33-0.03c-0.22,0-0.42,0.04-0.6,0.12c-0.19,0.08-0.35,0.19-0.49,0.33c-0.14,0.14-0.25,0.31-0.33,0.5
			s-0.12,0.39-0.12,0.61c0,0.22,0.04,0.42,0.12,0.62s0.19,0.36,0.33,0.5c0.14,0.14,0.3,0.25,0.49,0.33
			c0.19,0.08,0.39,0.12,0.61,0.12c0.1,0,0.2-0.01,0.3-0.03c0.1-0.02,0.21-0.05,0.31-0.09s0.2-0.09,0.3-0.14
			c0.1-0.05,0.19-0.12,0.27-0.19l0.41,0.5c-0.11,0.08-0.23,0.16-0.36,0.23s-0.27,0.13-0.41,0.18c-0.14,0.05-0.29,0.09-0.44,0.11
			c-0.15,0.03-0.3,0.04-0.44,0.04c-0.31,0-0.6-0.06-0.88-0.17c-0.27-0.11-0.51-0.27-0.71-0.46c-0.2-0.2-0.36-0.42-0.47-0.69
			c-0.11-0.26-0.17-0.55-0.17-0.85c0-0.3,0.06-0.58,0.17-0.85c0.12-0.26,0.28-0.49,0.48-0.68s0.44-0.35,0.72-0.46
			c0.28-0.11,0.57-0.17,0.9-0.17c0.15,0,0.3,0.01,0.45,0.04c0.15,0.03,0.29,0.07,0.43,0.12c0.14,0.05,0.27,0.11,0.4,0.19
			c0.13,0.07,0.24,0.16,0.35,0.25L58.47,49.33z M58.18,50.71h-1.29v-0.6h1.96v1.91h-0.67V50.71z"/>
		<path class="st1" d="M60.46,48.29h3.02v0.61h-2.31v1.19h2.07v0.61h-2.07v1.21h2.38v0.61h-3.1V48.29z"/>
		<path class="st1" d="M65.04,48.29h0.83l1.46,2.87l1.45-2.87h0.83v4.23h-0.66l-0.01-3.24l-1.39,2.79H67.1l-1.4-2.79v3.24h-0.66
			V48.29z"/>
		<path class="st1" d="M71.33,48.29h3.02v0.61h-2.31v1.19h2.07v0.61h-2.07v1.21h2.38v0.61h-3.1V48.29z"/>
		<path class="st1" d="M75.9,48.29h0.7l2.45,3.36l-0.18,0.06v-3.42h0.7v4.23h-0.7l-2.44-3.35l0.19-0.06v3.41H75.9V48.29z"/>
		<path class="st1" d="M80.79,48.29h3.39v0.61h-1.34v3.62h-0.71V48.9h-1.34V48.29z"/>
		<path class="st1" d="M90.6,49.39c-0.08-0.08-0.16-0.16-0.25-0.23c-0.09-0.07-0.19-0.12-0.29-0.17c-0.1-0.05-0.21-0.08-0.31-0.11
			s-0.22-0.04-0.32-0.04c-0.21,0-0.41,0.04-0.59,0.12c-0.18,0.08-0.34,0.19-0.48,0.33c-0.14,0.14-0.24,0.3-0.32,0.49
			s-0.12,0.39-0.12,0.61c0,0.21,0.04,0.42,0.12,0.6s0.19,0.35,0.32,0.49c0.14,0.14,0.3,0.25,0.48,0.33
			c0.18,0.08,0.38,0.12,0.59,0.12c0.11,0,0.21-0.01,0.32-0.03s0.21-0.06,0.31-0.1c0.1-0.04,0.2-0.1,0.29-0.16s0.18-0.13,0.26-0.21
			l0.42,0.44c-0.11,0.11-0.22,0.2-0.35,0.29c-0.13,0.09-0.26,0.16-0.4,0.22c-0.14,0.06-0.29,0.11-0.44,0.14
			c-0.15,0.03-0.3,0.05-0.45,0.05c-0.31,0-0.6-0.06-0.87-0.17c-0.27-0.11-0.5-0.27-0.7-0.46c-0.2-0.2-0.35-0.42-0.47-0.69
			c-0.11-0.26-0.17-0.55-0.17-0.85c0-0.3,0.06-0.58,0.17-0.85c0.12-0.26,0.27-0.49,0.47-0.68c0.2-0.19,0.44-0.35,0.71-0.46
			c0.27-0.11,0.56-0.17,0.88-0.17c0.15,0,0.3,0.02,0.45,0.05c0.15,0.03,0.29,0.07,0.43,0.13c0.14,0.06,0.27,0.12,0.39,0.21
			c0.12,0.08,0.24,0.17,0.34,0.27L90.6,49.39z"/>
		<path class="st1" d="M95.04,48.41c0.27,0.11,0.51,0.26,0.71,0.46s0.36,0.42,0.47,0.68c0.12,0.26,0.17,0.54,0.17,0.85
			c0,0.3-0.06,0.59-0.17,0.85c-0.11,0.26-0.27,0.49-0.47,0.69c-0.2,0.2-0.44,0.35-0.71,0.46c-0.27,0.11-0.57,0.17-0.88,0.17
			c-0.32,0-0.61-0.06-0.88-0.17c-0.27-0.11-0.51-0.27-0.71-0.46c-0.2-0.2-0.36-0.42-0.48-0.69c-0.11-0.26-0.17-0.55-0.17-0.85
			s0.06-0.59,0.17-0.85c0.12-0.26,0.27-0.49,0.48-0.68c0.2-0.19,0.44-0.35,0.71-0.46c0.27-0.11,0.57-0.17,0.88-0.17
			C94.47,48.24,94.76,48.3,95.04,48.41z M93.57,48.97c-0.19,0.08-0.35,0.19-0.49,0.33c-0.14,0.14-0.25,0.3-0.33,0.49
			s-0.12,0.39-0.12,0.61c0,0.22,0.04,0.42,0.12,0.61s0.19,0.36,0.33,0.5c0.14,0.14,0.3,0.25,0.49,0.33
			c0.18,0.08,0.38,0.12,0.59,0.12s0.4-0.04,0.59-0.12c0.18-0.08,0.34-0.19,0.48-0.33c0.14-0.14,0.24-0.31,0.32-0.5
			s0.12-0.39,0.12-0.61c0-0.22-0.04-0.42-0.12-0.61s-0.19-0.35-0.32-0.49c-0.14-0.14-0.3-0.25-0.48-0.33
			c-0.18-0.08-0.38-0.12-0.59-0.12S93.75,48.89,93.57,48.97z"/>
		<path class="st1" d="M97.76,48.29h0.7l2.45,3.36l-0.18,0.06v-3.42h0.7v4.23h-0.7l-2.44-3.35l0.19-0.06v3.41h-0.71V48.29z"/>
		<path class="st1" d="M105.73,49.27c-0.09-0.06-0.19-0.11-0.29-0.16c-0.1-0.05-0.2-0.09-0.31-0.12c-0.11-0.03-0.21-0.06-0.32-0.08
			s-0.22-0.03-0.32-0.03c-0.07,0-0.15,0.01-0.23,0.02c-0.08,0.01-0.16,0.04-0.22,0.08c-0.07,0.04-0.12,0.08-0.17,0.14
			s-0.06,0.14-0.06,0.23c0,0.12,0.03,0.22,0.1,0.3c0.07,0.08,0.15,0.15,0.26,0.2s0.23,0.1,0.36,0.15c0.14,0.04,0.28,0.08,0.42,0.13
			c0.14,0.05,0.28,0.1,0.42,0.16s0.26,0.13,0.36,0.23s0.19,0.2,0.26,0.33c0.07,0.13,0.1,0.3,0.1,0.49c0,0.22-0.05,0.4-0.14,0.56
			s-0.22,0.28-0.37,0.38s-0.32,0.17-0.51,0.22c-0.19,0.05-0.38,0.07-0.57,0.07c-0.16,0-0.32-0.01-0.47-0.04s-0.31-0.07-0.46-0.13
			c-0.15-0.06-0.29-0.13-0.42-0.21c-0.13-0.08-0.26-0.18-0.38-0.29l0.31-0.59c0.09,0.09,0.2,0.17,0.31,0.25
			c0.11,0.08,0.23,0.14,0.35,0.2c0.12,0.05,0.25,0.1,0.38,0.13c0.13,0.03,0.26,0.05,0.39,0.05c0.09,0,0.18-0.01,0.27-0.03
			c0.09-0.02,0.18-0.05,0.26-0.09c0.08-0.04,0.14-0.1,0.19-0.17c0.05-0.07,0.07-0.16,0.07-0.27c0-0.12-0.03-0.22-0.1-0.31
			c-0.07-0.08-0.15-0.15-0.26-0.2c-0.11-0.05-0.23-0.1-0.37-0.14c-0.14-0.04-0.28-0.08-0.42-0.13c-0.14-0.04-0.28-0.09-0.42-0.15
			s-0.26-0.13-0.37-0.22s-0.19-0.2-0.26-0.33s-0.1-0.29-0.1-0.48c0-0.21,0.05-0.39,0.14-0.54s0.21-0.27,0.36-0.36
			c0.15-0.09,0.31-0.16,0.5-0.2c0.18-0.04,0.37-0.06,0.55-0.06c0.13,0,0.26,0.01,0.39,0.03c0.13,0.02,0.26,0.05,0.38,0.08
			c0.13,0.04,0.25,0.08,0.37,0.14c0.12,0.05,0.23,0.12,0.34,0.19L105.73,49.27z"/>
		<path class="st1" d="M108.15,50.78c0,0.18,0.03,0.35,0.08,0.5c0.05,0.15,0.13,0.27,0.22,0.37c0.1,0.1,0.21,0.18,0.35,0.23
			s0.29,0.08,0.46,0.08c0.17,0,0.32-0.03,0.46-0.08s0.25-0.13,0.35-0.23s0.17-0.22,0.22-0.37s0.08-0.31,0.08-0.5v-2.5h0.71v2.5
			c0,0.28-0.04,0.53-0.13,0.75c-0.08,0.22-0.2,0.41-0.36,0.56c-0.16,0.15-0.35,0.27-0.57,0.35c-0.22,0.08-0.48,0.12-0.76,0.12
			c-0.28,0-0.54-0.04-0.77-0.12c-0.23-0.08-0.42-0.2-0.58-0.35c-0.16-0.15-0.28-0.34-0.36-0.56c-0.08-0.22-0.13-0.47-0.13-0.75v-2.5
			h0.71V50.78z"/>
		<path class="st1" d="M112.72,48.29h0.71v3.62h1.83v0.61h-2.55V48.29z"/>
		<path class="st1" d="M115.66,48.29h3.39v0.61h-1.34v3.62H117V48.9h-1.34V48.29z"/>
		<path class="st1" d="M121.38,48.29h0.73l1.85,4.23h-0.76l-1.48-3.51l-1.47,3.51h-0.74L121.38,48.29z M120.44,50.94h2.53v0.61
			h-2.53V50.94z"/>
		<path class="st1" d="M125.13,48.29h0.7l2.45,3.36l-0.18,0.06v-3.42h0.7v4.23h-0.7l-2.44-3.35l0.19-0.06v3.41h-0.71V48.29z"/>
		<path class="st1" d="M133.59,49.39c-0.08-0.08-0.16-0.16-0.25-0.23c-0.09-0.07-0.19-0.12-0.29-0.17c-0.1-0.05-0.21-0.08-0.31-0.11
			s-0.22-0.04-0.32-0.04c-0.21,0-0.41,0.04-0.59,0.12c-0.18,0.08-0.34,0.19-0.48,0.33c-0.14,0.14-0.24,0.3-0.32,0.49
			s-0.12,0.39-0.12,0.61c0,0.21,0.04,0.42,0.12,0.6s0.19,0.35,0.32,0.49c0.14,0.14,0.3,0.25,0.48,0.33
			c0.18,0.08,0.38,0.12,0.59,0.12c0.11,0,0.21-0.01,0.32-0.03s0.21-0.06,0.31-0.1c0.1-0.04,0.2-0.1,0.29-0.16s0.18-0.13,0.26-0.21
			l0.42,0.44c-0.11,0.11-0.22,0.2-0.35,0.29c-0.13,0.09-0.26,0.16-0.4,0.22c-0.14,0.06-0.29,0.11-0.44,0.14
			c-0.15,0.03-0.3,0.05-0.45,0.05c-0.31,0-0.6-0.06-0.87-0.17c-0.27-0.11-0.5-0.27-0.7-0.46c-0.2-0.2-0.35-0.42-0.47-0.69
			c-0.11-0.26-0.17-0.55-0.17-0.85c0-0.3,0.06-0.58,0.17-0.85c0.12-0.26,0.27-0.49,0.47-0.68c0.2-0.19,0.44-0.35,0.71-0.46
			c0.27-0.11,0.56-0.17,0.88-0.17c0.15,0,0.3,0.02,0.45,0.05c0.15,0.03,0.29,0.07,0.43,0.13c0.14,0.06,0.27,0.12,0.39,0.21
			c0.12,0.08,0.24,0.17,0.34,0.27L133.59,49.39z"/>
		<path class="st1" d="M134.72,48.29h0.72l1.21,2.09l1.19-2.09h0.73l-1.86,3.34h-0.1L134.72,48.29z M136.3,50.74h0.71v1.78h-0.71
			V50.74z"/>
	</g>
	<g>
		<g>
			<path class="st2" d="M24.29,20.7c-2.68,0-4.9,1.13-6.23,3.21V12.87h-4.49v17.48c0,6.04,4.07,9.96,9.92,9.96
				c5.92,0,10.07-4.08,10.07-10C33.57,23.94,28.81,20.7,24.29,20.7z M23.53,36.13c-3.28,0-5.47-2.34-5.47-5.62
				c0-3.28,2.19-5.62,5.47-5.62c3.28,0,5.51,2.34,5.51,5.62C29.04,33.79,26.81,36.13,23.53,36.13z"/>
			<path class="st2" d="M55.75,30.51c0-5.66-4.07-9.81-9.96-9.81c-5.89,0-10.04,4.15-10.04,9.81c0,5.66,4.15,9.81,10.04,9.81
				c4.41,0,7.81-2.3,9.21-5.85h-4.79c-0.94,1.21-2.41,1.77-4.41,1.77c-2.64,0-4.72-1.43-5.32-4.15h15.28V30.51z M40.59,28.51
				c0.72-2.45,2.68-3.73,5.21-3.73c2.45,0,4.49,1.24,5.21,3.73H40.59z"/>
			<path class="st3" d="M63.79,21.6c0-2.87,1.51-4.04,3.7-4.04c2.19,0,3.7,1.13,3.7,4.07h4.45c0-5.51-3.28-8.26-8.15-8.26
				s-8.19,2.72-8.19,8.23v18.72h4.49V29.03h7.41v-4.08h-7.41V21.6z"/>
			<path class="st3" d="M94.99,21.19c-4.87,0-8.19,2.68-8.19,8.3v10.83h4.49V29.49c0-3.02,1.51-4.11,3.7-4.11
				c2.19,0,3.7,1.1,3.7,4.11v0.19h4.45v-0.11C103.14,23.87,99.86,21.19,94.99,21.19z"/>
			<path class="st3" d="M77.48,21.21v4.21c1.82,0.22,3.02,1.38,3.02,4.07v10.83H85V29.49C85,24.13,81.98,21.45,77.48,21.21z"/>
			<path class="st3" d="M113.29,28.58c-2-0.26-3.7-0.49-3.7-1.92c0-1.09,0.98-2.04,2.94-2.04c1.77,0,2.83,0.79,2.94,1.92h4.45
				c-0.11-3.28-2.91-5.85-7.47-5.85c-4.49,0-7.39,2.49-7.39,6.3c0,4.56,4.22,5.06,7.09,5.43c2,0.26,3.66,0.45,3.66,1.89
				c0,1.13-0.98,2.08-3.28,2.08c-2.19,0-3.28-0.83-3.32-2.08h-4.53c0.11,3.47,3.09,6,7.85,6c4.76,0,7.81-2.49,7.81-6.26
				C120.35,29.41,115.78,28.92,113.29,28.58z"/>
			<path class="st3" d="M134.08,32.17v0.49c0,2.53-1.28,3.47-3.13,3.47c-1.85,0-3.13-0.98-3.13-3.47v-7.39h9.62v-4.41h-9.62v-7.94
				h-4.49v19.41c0,5.5,3.09,7.99,7.62,7.99c4.53,0,7.62-2.49,7.62-7.66v-0.49H134.08z"/>
		</g>
		<path class="st2" d="M92.1,15.76c0,1.77-0.74,3.36-1.94,4.48c-0.51-0.9-1.3-1.62-2.25-2.04c0.71-0.57,1.16-1.45,1.16-2.43
			c0-1.73-1.4-3.12-3.12-3.12c-1.73,0-3.12,1.4-3.12,3.12c0,0.98,0.45,1.86,1.16,2.43c-0.95,0.42-1.74,1.14-2.25,2.04
			c-1.19-1.12-1.94-2.71-1.94-4.48c0-3.4,2.75-6.15,6.15-6.15S92.1,12.37,92.1,15.76z"/>
	</g>
</g>
</svg>
