<?xml version="1.0" encoding="utf-8"?>
<!-- Generator: Adobe Illustrator 29.7.1, SVG Export Plug-In . SVG Version: 9.03 Build 0)  -->
<svg version="1.1" id="Layer_1" xmlns="http://www.w3.org/2000/svg" xmlns:xlink="http://www.w3.org/1999/xlink" x="0px" y="0px"
	 viewBox="0 0 150 65" style="enable-background:new 0 0 150 65;" xml:space="preserve">
<style type="text/css">
	.st0{fill:#333333;}
	.st1{fill:#508DF8;}
	.st2{fill:#1A2653;}
	.st3{fill:none;}
</style>
<g>
	<g>
		<g>
			<path class="st0" d="M11.07,50.36h0.74v1.92h2.32v-1.92h0.74v4.37h-0.74V52.9h-2.32v1.83h-0.74V50.36z"/>
			<path class="st0" d="M18.41,50.36c0.28,0,0.53,0.03,0.75,0.1c0.22,0.07,0.4,0.16,0.55,0.29c0.15,0.13,0.26,0.28,0.34,0.47
				s0.12,0.39,0.12,0.63c0,0.25-0.04,0.46-0.12,0.66s-0.19,0.36-0.34,0.49c-0.15,0.13-0.33,0.23-0.55,0.3
				c-0.22,0.07-0.47,0.11-0.75,0.11h-1.04v1.33h-0.74v-4.37H18.41z M18.41,52.77c0.17,0,0.32-0.02,0.45-0.06
				c0.13-0.04,0.24-0.09,0.33-0.17s0.16-0.17,0.21-0.28s0.07-0.25,0.07-0.4c0-0.15-0.02-0.28-0.07-0.39s-0.12-0.2-0.21-0.27
				c-0.09-0.07-0.2-0.12-0.33-0.16c-0.13-0.04-0.28-0.05-0.45-0.05h-1.04v1.78H18.41z M18.43,53.11h0.72l1.09,1.62h-0.84
				L18.43,53.11z"/>
			<path class="st0" d="M25.01,52.57c-0.18,0.08-0.34,0.16-0.46,0.23c-0.12,0.08-0.22,0.16-0.29,0.24
				c-0.07,0.08-0.13,0.17-0.16,0.25c-0.03,0.09-0.05,0.18-0.05,0.27c0,0.1,0.02,0.18,0.07,0.26c0.04,0.08,0.11,0.15,0.19,0.21
				c0.08,0.06,0.18,0.1,0.29,0.13c0.11,0.03,0.24,0.05,0.38,0.05c0.24,0,0.44-0.03,0.62-0.1c0.18-0.07,0.34-0.17,0.47-0.31
				c0.13-0.14,0.24-0.31,0.33-0.52s0.16-0.46,0.21-0.74l0.56,0.11c-0.06,0.35-0.16,0.65-0.29,0.92s-0.29,0.49-0.48,0.67
				c-0.19,0.18-0.41,0.31-0.65,0.41c-0.24,0.09-0.51,0.14-0.8,0.14c-0.23,0-0.44-0.03-0.63-0.08c-0.19-0.06-0.35-0.13-0.49-0.24
				c-0.14-0.1-0.25-0.22-0.32-0.36c-0.08-0.14-0.12-0.29-0.12-0.46c0-0.15,0.02-0.29,0.07-0.42c0.05-0.13,0.12-0.26,0.22-0.38
				c0.1-0.12,0.23-0.23,0.39-0.34c0.16-0.11,0.35-0.21,0.58-0.32L25.01,52.57z M26.97,54.79l-2.47-2.42
				c-0.11-0.11-0.2-0.21-0.27-0.3c-0.07-0.09-0.13-0.18-0.18-0.26s-0.08-0.17-0.1-0.25c-0.02-0.08-0.03-0.17-0.03-0.25
				c0-0.15,0.03-0.29,0.09-0.41c0.06-0.12,0.14-0.23,0.25-0.32c0.11-0.09,0.23-0.16,0.38-0.2c0.15-0.05,0.31-0.07,0.49-0.07
				c0.11,0,0.22,0.01,0.32,0.03s0.19,0.05,0.28,0.09c0.09,0.04,0.17,0.09,0.25,0.15c0.08,0.06,0.15,0.14,0.21,0.22l-0.4,0.34
				c-0.04-0.05-0.09-0.1-0.13-0.14s-0.1-0.08-0.15-0.11s-0.11-0.05-0.17-0.07c-0.06-0.02-0.13-0.03-0.2-0.03
				c-0.1,0-0.18,0.01-0.25,0.04c-0.07,0.02-0.13,0.06-0.18,0.1s-0.08,0.1-0.11,0.16s-0.04,0.13-0.04,0.2c0,0.06,0.01,0.11,0.02,0.16
				s0.04,0.11,0.08,0.17c0.04,0.06,0.09,0.13,0.15,0.2c0.06,0.07,0.15,0.16,0.25,0.26l2.31,2.25L26.97,54.79z"/>
			<path class="st0" d="M30.57,50.36h0.85l1.51,2.96l1.5-2.96h0.85v4.37h-0.68l-0.01-3.34l-1.44,2.88H32.7l-1.45-2.88v3.34h-0.68
				V50.36z"/>
			<path class="st0" d="M38.42,50.36h0.76l1.91,4.37H40.3l-1.52-3.63l-1.52,3.63h-0.77L38.42,50.36z M37.45,53.09h2.62v0.62h-2.62
				V53.09z"/>
			<path class="st0" d="M42.29,50.36h0.72l2.53,3.46l-0.19,0.06v-3.53h0.72v4.37h-0.72l-2.52-3.46l0.19-0.06v3.52h-0.74V50.36z"/>
			<path class="st0" d="M49.22,50.36h0.76l1.91,4.37H51.1l-1.52-3.63l-1.52,3.63h-0.77L49.22,50.36z M48.25,53.09h2.62v0.62h-2.62
				V53.09z"/>
			<path class="st0" d="M56.33,51.44c-0.08-0.08-0.17-0.15-0.27-0.21c-0.1-0.06-0.2-0.12-0.31-0.16c-0.11-0.04-0.22-0.08-0.33-0.1
				c-0.11-0.02-0.23-0.03-0.34-0.03c-0.22,0-0.43,0.04-0.62,0.12c-0.19,0.08-0.36,0.2-0.51,0.34s-0.26,0.31-0.34,0.51
				s-0.12,0.41-0.12,0.63c0,0.23,0.04,0.44,0.12,0.64c0.08,0.2,0.2,0.37,0.34,0.51c0.14,0.15,0.31,0.26,0.51,0.34
				c0.19,0.08,0.4,0.12,0.63,0.12c0.1,0,0.21-0.01,0.31-0.03c0.11-0.02,0.21-0.05,0.32-0.09c0.11-0.04,0.21-0.09,0.31-0.15
				c0.1-0.06,0.19-0.12,0.28-0.19l0.42,0.51c-0.11,0.08-0.23,0.16-0.37,0.23c-0.14,0.07-0.28,0.13-0.42,0.18
				c-0.15,0.05-0.3,0.09-0.45,0.12s-0.31,0.04-0.46,0.04c-0.32,0-0.62-0.06-0.9-0.17c-0.28-0.12-0.52-0.27-0.73-0.48
				c-0.21-0.2-0.37-0.44-0.49-0.71s-0.18-0.57-0.18-0.88c0-0.31,0.06-0.6,0.18-0.87s0.28-0.51,0.49-0.71
				c0.21-0.2,0.46-0.36,0.74-0.47c0.29-0.11,0.59-0.17,0.92-0.17c0.16,0,0.31,0.01,0.47,0.04c0.15,0.03,0.3,0.07,0.45,0.12
				s0.28,0.12,0.41,0.19c0.13,0.08,0.25,0.16,0.36,0.26L56.33,51.44z M56.04,52.85H54.7v-0.62h2.02v1.97h-0.69V52.85z"/>
			<path class="st0" d="M58.39,50.36h3.12v0.63h-2.38v1.23h2.13v0.62h-2.13v1.25h2.46v0.63h-3.2V50.36z"/>
			<path class="st0" d="M63.11,50.36h0.85l1.51,2.96l1.5-2.96h0.85v4.37h-0.68l-0.01-3.34l-1.44,2.88h-0.47l-1.45-2.88v3.34h-0.68
				V50.36z"/>
			<path class="st0" d="M69.6,50.36h3.12v0.63h-2.38v1.23h2.13v0.62h-2.13v1.25h2.46v0.63h-3.2V50.36z"/>
			<path class="st0" d="M74.32,50.36h0.72l2.53,3.46l-0.19,0.06v-3.53h0.72v4.37h-0.72l-2.52-3.46l0.19-0.06v3.52h-0.74V50.36z"/>
			<path class="st0" d="M79.37,50.36h3.5v0.63h-1.39v3.74h-0.74v-3.74h-1.38V50.36z"/>
			<path class="st0" d="M89.2,51.49c-0.08-0.09-0.17-0.17-0.26-0.24c-0.1-0.07-0.2-0.13-0.3-0.18s-0.21-0.08-0.32-0.11
				c-0.11-0.03-0.22-0.04-0.33-0.04c-0.22,0-0.42,0.04-0.61,0.12c-0.19,0.08-0.35,0.2-0.49,0.34c-0.14,0.14-0.25,0.31-0.33,0.51
				c-0.08,0.2-0.12,0.4-0.12,0.63c0,0.22,0.04,0.43,0.12,0.62c0.08,0.19,0.19,0.36,0.33,0.51c0.14,0.14,0.31,0.26,0.49,0.34
				c0.19,0.08,0.39,0.12,0.61,0.12c0.11,0,0.22-0.01,0.33-0.04c0.11-0.02,0.22-0.06,0.32-0.1c0.1-0.05,0.2-0.1,0.3-0.17
				s0.19-0.14,0.27-0.22l0.44,0.46c-0.11,0.11-0.23,0.21-0.36,0.29c-0.13,0.09-0.27,0.16-0.42,0.23s-0.3,0.11-0.45,0.14
				c-0.15,0.04-0.31,0.05-0.46,0.05c-0.32,0-0.62-0.06-0.9-0.17c-0.28-0.12-0.52-0.27-0.72-0.48c-0.2-0.2-0.36-0.44-0.48-0.71
				c-0.12-0.27-0.17-0.57-0.17-0.88c0-0.31,0.06-0.6,0.18-0.87s0.28-0.51,0.49-0.71c0.21-0.2,0.45-0.36,0.73-0.47
				c0.28-0.11,0.58-0.17,0.9-0.17c0.15,0,0.31,0.02,0.46,0.05s0.3,0.08,0.44,0.13c0.14,0.06,0.28,0.13,0.41,0.21
				s0.25,0.18,0.35,0.28L89.2,51.49z"/>
			<path class="st0" d="M93.88,50.48c0.28,0.11,0.53,0.27,0.73,0.47c0.21,0.2,0.37,0.44,0.49,0.71s0.18,0.56,0.18,0.87
				c0,0.31-0.06,0.61-0.18,0.88s-0.28,0.51-0.49,0.71c-0.21,0.2-0.45,0.36-0.73,0.48c-0.28,0.12-0.59,0.17-0.91,0.17
				s-0.63-0.06-0.91-0.17c-0.28-0.12-0.53-0.27-0.74-0.48c-0.21-0.2-0.37-0.44-0.49-0.71s-0.18-0.57-0.18-0.88
				c0-0.31,0.06-0.61,0.18-0.88c0.12-0.27,0.28-0.5,0.49-0.71c0.21-0.2,0.45-0.36,0.74-0.47c0.28-0.11,0.59-0.17,0.91-0.17
				S93.6,50.37,93.88,50.48z M92.36,51.06c-0.19,0.08-0.36,0.2-0.5,0.34s-0.26,0.31-0.34,0.51c-0.08,0.19-0.12,0.4-0.12,0.62
				c0,0.23,0.04,0.44,0.12,0.63c0.08,0.2,0.2,0.37,0.34,0.51c0.14,0.15,0.31,0.26,0.5,0.35c0.19,0.08,0.39,0.13,0.61,0.13
				s0.42-0.04,0.6-0.13c0.19-0.08,0.35-0.2,0.49-0.35c0.14-0.15,0.25-0.32,0.33-0.51c0.08-0.2,0.12-0.41,0.12-0.63
				c0-0.22-0.04-0.43-0.12-0.62c-0.08-0.19-0.19-0.36-0.33-0.51c-0.14-0.14-0.31-0.26-0.49-0.34c-0.19-0.08-0.39-0.12-0.6-0.12
				S92.56,50.98,92.36,51.06z"/>
			<path class="st0" d="M96.69,50.36h0.72l2.53,3.46l-0.19,0.06v-3.53h0.72v4.37h-0.72l-2.52-3.46l0.19-0.06v3.52h-0.74V50.36z"/>
			<path class="st0" d="M104.92,51.37c-0.09-0.06-0.19-0.11-0.29-0.16s-0.21-0.09-0.32-0.13s-0.22-0.06-0.33-0.08
				c-0.11-0.02-0.22-0.03-0.33-0.03c-0.08,0-0.16,0.01-0.24,0.02c-0.08,0.01-0.16,0.04-0.23,0.08c-0.07,0.04-0.13,0.09-0.17,0.15
				c-0.04,0.06-0.07,0.14-0.07,0.24c0,0.12,0.03,0.23,0.1,0.31c0.07,0.08,0.16,0.15,0.27,0.21c0.11,0.06,0.24,0.11,0.38,0.15
				c0.14,0.04,0.28,0.09,0.43,0.14c0.15,0.05,0.29,0.1,0.43,0.16c0.14,0.06,0.27,0.14,0.38,0.23s0.2,0.21,0.27,0.35
				c0.07,0.14,0.1,0.3,0.1,0.5c0,0.22-0.05,0.42-0.15,0.58c-0.1,0.16-0.23,0.29-0.38,0.39c-0.16,0.1-0.33,0.18-0.53,0.22
				c-0.2,0.05-0.39,0.07-0.59,0.07c-0.16,0-0.33-0.02-0.49-0.05s-0.32-0.08-0.47-0.14s-0.3-0.13-0.44-0.22
				c-0.14-0.09-0.27-0.19-0.39-0.3l0.32-0.61c0.1,0.09,0.2,0.17,0.32,0.25c0.11,0.08,0.24,0.15,0.36,0.2s0.26,0.1,0.39,0.14
				s0.27,0.05,0.41,0.05c0.09,0,0.19-0.01,0.28-0.03s0.18-0.05,0.26-0.09s0.15-0.1,0.2-0.17c0.05-0.07,0.08-0.16,0.08-0.27
				c0-0.13-0.03-0.23-0.1-0.32c-0.07-0.08-0.16-0.15-0.27-0.21c-0.11-0.06-0.24-0.11-0.38-0.15c-0.14-0.04-0.29-0.08-0.43-0.13
				c-0.15-0.05-0.29-0.1-0.43-0.16c-0.14-0.06-0.27-0.14-0.38-0.23c-0.11-0.09-0.2-0.21-0.27-0.34c-0.07-0.13-0.1-0.3-0.1-0.5
				c0-0.22,0.05-0.4,0.14-0.56c0.1-0.15,0.22-0.28,0.37-0.38s0.32-0.17,0.51-0.21c0.19-0.04,0.38-0.07,0.56-0.07
				c0.13,0,0.27,0.01,0.4,0.03c0.13,0.02,0.27,0.05,0.4,0.09c0.13,0.04,0.26,0.08,0.38,0.14c0.12,0.06,0.24,0.12,0.35,0.19
				L104.92,51.37z"/>
			<path class="st0" d="M107.42,52.93c0,0.19,0.03,0.36,0.08,0.51c0.05,0.15,0.13,0.28,0.23,0.38c0.1,0.11,0.22,0.19,0.36,0.24
				c0.14,0.06,0.3,0.08,0.48,0.08c0.17,0,0.33-0.03,0.47-0.08c0.14-0.05,0.26-0.13,0.36-0.24c0.1-0.1,0.17-0.23,0.23-0.38
				c0.05-0.15,0.08-0.32,0.08-0.51v-2.58h0.74v2.58c0,0.28-0.04,0.54-0.13,0.77c-0.09,0.23-0.21,0.42-0.37,0.58
				c-0.16,0.16-0.36,0.28-0.59,0.37c-0.23,0.08-0.49,0.13-0.78,0.13c-0.29,0-0.56-0.04-0.79-0.13c-0.23-0.08-0.43-0.21-0.59-0.37
				c-0.16-0.16-0.29-0.35-0.37-0.58c-0.09-0.23-0.13-0.48-0.13-0.77v-2.58h0.74V52.93z"/>
			<path class="st0" d="M112.13,50.36h0.74v3.74h1.89v0.63h-2.63V50.36z"/>
			<path class="st0" d="M115.57,50.36h3.5v0.63h-1.39v3.74h-0.74v-3.74h-1.38V50.36z"/>
			<path class="st0" d="M121.69,50.36h0.76l1.91,4.37h-0.79l-1.52-3.63l-1.52,3.63h-0.77L121.69,50.36z M120.72,53.09h2.62v0.62
				h-2.62V53.09z"/>
			<path class="st0" d="M125.56,50.36h0.72l2.53,3.46l-0.19,0.06v-3.53h0.72v4.37h-0.72l-2.52-3.46l0.19-0.06v3.52h-0.74V50.36z"/>
			<path class="st0" d="M134.29,51.49c-0.08-0.09-0.17-0.17-0.26-0.24c-0.1-0.07-0.2-0.13-0.3-0.18s-0.21-0.08-0.32-0.11
				c-0.11-0.03-0.22-0.04-0.33-0.04c-0.22,0-0.42,0.04-0.61,0.12c-0.19,0.08-0.35,0.2-0.49,0.34c-0.14,0.14-0.25,0.31-0.33,0.51
				c-0.08,0.2-0.12,0.4-0.12,0.63c0,0.22,0.04,0.43,0.12,0.62c0.08,0.19,0.19,0.36,0.33,0.51c0.14,0.14,0.31,0.26,0.49,0.34
				c0.19,0.08,0.39,0.12,0.61,0.12c0.11,0,0.22-0.01,0.33-0.04c0.11-0.02,0.22-0.06,0.32-0.1c0.1-0.05,0.2-0.1,0.3-0.17
				s0.19-0.14,0.27-0.22l0.44,0.46c-0.11,0.11-0.23,0.21-0.36,0.29c-0.13,0.09-0.27,0.16-0.42,0.23s-0.3,0.11-0.45,0.14
				c-0.15,0.04-0.31,0.05-0.46,0.05c-0.32,0-0.62-0.06-0.9-0.17c-0.28-0.12-0.52-0.27-0.72-0.48c-0.2-0.2-0.36-0.44-0.48-0.71
				c-0.12-0.27-0.17-0.57-0.17-0.88c0-0.31,0.06-0.6,0.18-0.87s0.28-0.51,0.49-0.71c0.21-0.2,0.45-0.36,0.73-0.47
				c0.28-0.11,0.58-0.17,0.9-0.17c0.15,0,0.31,0.02,0.46,0.05s0.3,0.08,0.44,0.13c0.14,0.06,0.28,0.13,0.41,0.21
				s0.25,0.18,0.35,0.28L134.29,51.49z"/>
			<path class="st0" d="M135.53,50.36h0.74l1.25,2.16l1.22-2.16h0.75l-1.92,3.45h-0.11L135.53,50.36z M137.16,52.88h0.73v1.84h-0.73
				V52.88z"/>
		</g>
	</g>
	<g>
		<g>
			<path class="st1" d="M21.56,21.89c-2.77,0-5.06,1.17-6.42,3.31V13.81H10.5v18.04c0,6.23,4.2,10.28,10.24,10.28
				c6.11,0,10.4-4.21,10.4-10.32C31.14,25.24,26.23,21.89,21.56,21.89z M20.78,37.81c-3.39,0-5.65-2.41-5.65-5.8
				c0-3.39,2.26-5.8,5.65-5.8c3.39,0,5.68,2.41,5.68,5.8C26.46,35.4,24.17,37.81,20.78,37.81z"/>
			<path class="st1" d="M54.03,32.01c0-5.84-4.2-10.12-10.28-10.12c-6.07,0-10.36,4.28-10.36,10.12c0,5.84,4.28,10.12,10.36,10.12
				c4.56,0,8.06-2.38,9.5-6.04h-4.95c-0.97,1.25-2.49,1.83-4.56,1.83c-2.73,0-4.87-1.48-5.49-4.28h15.77V32.01z M38.38,29.95
				c0.74-2.53,2.77-3.85,5.37-3.85c2.53,0,4.63,1.28,5.37,3.85H38.38z"/>
			<path class="st2" d="M62.33,22.82c0-2.96,1.56-4.17,3.82-4.17c2.26,0,3.82,1.17,3.82,4.2h4.59c0-5.68-3.39-8.53-8.41-8.53
				c-5.02,0-8.45,2.8-8.45,8.49v19.32h4.63V30.48h7.65v-4.21h-7.65V22.82z"/>
			<path class="st2" d="M94.53,22.4c-5.02,0-8.45,2.76-8.45,8.56v11.17h4.63V30.96c0-3.11,1.56-4.24,3.82-4.24
				c2.26,0,3.81,1.13,3.81,4.24v0.2h4.59v-0.12C102.94,25.16,99.55,22.4,94.53,22.4z"/>
			<path class="st2" d="M76.46,22.41v4.34c1.88,0.22,3.12,1.42,3.12,4.2v11.18h4.63V30.96C84.21,25.43,81.1,22.66,76.46,22.41z"/>
			<path class="st2" d="M113.41,30.02c-2.06-0.27-3.82-0.51-3.82-1.98c0-1.13,1.01-2.1,3.04-2.1c1.83,0,2.92,0.82,3.04,1.98h4.59
				c-0.12-3.39-3-6.03-7.71-6.03c-4.63,0-7.63,2.57-7.63,6.5c0,4.71,4.36,5.22,7.32,5.61c2.06,0.27,3.78,0.47,3.78,1.95
				c0,1.17-1.01,2.14-3.39,2.14c-2.26,0-3.39-0.86-3.43-2.14h-4.67c0.12,3.58,3.19,6.19,8.1,6.19c4.91,0,8.06-2.57,8.06-6.46
				C120.69,30.88,115.98,30.38,113.41,30.02z"/>
			<path class="st2" d="M134.87,33.72v0.51c0,2.61-1.32,3.58-3.23,3.58c-1.91,0-3.23-1.01-3.23-3.58V26.6h9.93v-4.55h-9.93v-8.2
				h-4.63v20.03c0,5.68,3.19,8.25,7.87,8.25c4.67,0,7.86-2.57,7.86-7.91v-0.51H134.87z"/>
		</g>
		<path class="st1" d="M91.54,16.79c0,1.82-0.77,3.46-2,4.62c-0.52-0.93-1.34-1.67-2.32-2.11c0.73-0.59,1.2-1.5,1.2-2.51
			c0-1.78-1.44-3.22-3.22-3.22s-3.22,1.44-3.22,3.22c0,1.01,0.47,1.92,1.2,2.51c-0.98,0.43-1.8,1.18-2.32,2.11
			c-1.23-1.16-2-2.8-2-4.62c0-3.5,2.84-6.35,6.35-6.35S91.54,13.29,91.54,16.79z"/>
	</g>
</g>
</svg>
